<svg id="visual" viewBox="0 0 900 600" width="900" height="600" xmlns="http://www.w3.org/2000/svg" xmlns:xlink="http://www.w3.org/1999/xlink" version="1.1"><g stroke-width="1" stroke-linejoin="bevel"><path d="M396 319L410 400L529 331Z" fill="#277297" stroke="#277297"></path><path d="M410 400L531 386L529 331Z" fill="#297ea6" stroke="#297ea6"></path><path d="M529 331L424 219L396 319Z" fill="#205a7a" stroke="#205a7a"></path><path d="M529 331L512 218L424 219Z" fill="#1d4e6b" stroke="#1d4e6b"></path><path d="M526 487L574 434L531 386Z" fill="#205a7a" stroke="#205a7a"></path><path d="M531 386L616 303L529 331Z" fill="#112e42" stroke="#112e42"></path><path d="M529 331L572 221L512 218Z" fill="#277297" stroke="#277297"></path><path d="M410 400L526 487L531 386Z" fill="#205a7a" stroke="#205a7a"></path><path d="M574 434L616 303L531 386Z" fill="#1d4e6b" stroke="#1d4e6b"></path><path d="M616 303L572 221L529 331Z" fill="#19435d" stroke="#19435d"></path><path d="M292 426L335 467L410 400Z" fill="#112e42" stroke="#112e42"></path><path d="M410 400L434 539L526 487Z" fill="#0c2435" stroke="#0c2435"></path><path d="M292 426L410 400L275 339Z" fill="#081a28" stroke="#081a28"></path><path d="M275 339L410 400L396 319Z" fill="#081a28" stroke="#081a28"></path><path d="M285 172L275 339L396 319Z" fill="#205a7a" stroke="#205a7a"></path><path d="M335 467L434 539L410 400Z" fill="#277297" stroke="#277297"></path><path d="M526 487L616 473L574 434Z" fill="#00101c" stroke="#00101c"></path><path d="M574 434L716 393L616 303Z" fill="#19435d" stroke="#19435d"></path><path d="M622 600L616 473L526 487Z" fill="#0c2435" stroke="#0c2435"></path><path d="M622 600L677 469L616 473Z" fill="#112e42" stroke="#112e42"></path><path d="M616 473L716 393L574 434Z" fill="#00101c" stroke="#00101c"></path><path d="M388 89L285 172L424 219Z" fill="#15384f" stroke="#15384f"></path><path d="M424 219L285 172L396 319Z" fill="#15384f" stroke="#15384f"></path><path d="M388 89L424 219L521 67Z" fill="#297ea6" stroke="#297ea6"></path><path d="M716 393L705 300L616 303Z" fill="#081a28" stroke="#081a28"></path><path d="M616 303L711 171L572 221Z" fill="#112e42" stroke="#112e42"></path><path d="M384 600L515 600L434 539Z" fill="#0c2435" stroke="#0c2435"></path><path d="M434 539L515 600L526 487Z" fill="#19435d" stroke="#19435d"></path><path d="M677 469L716 393L616 473Z" fill="#277297" stroke="#277297"></path><path d="M285 172L224 237L275 339Z" fill="#1d4e6b" stroke="#1d4e6b"></path><path d="M275 339L179 382L292 426Z" fill="#15384f" stroke="#15384f"></path><path d="M331 600L384 600L335 467Z" fill="#112e42" stroke="#112e42"></path><path d="M335 467L384 600L434 539Z" fill="#1d4e6b" stroke="#1d4e6b"></path><path d="M711 171L617 131L572 221Z" fill="#1d4e6b" stroke="#1d4e6b"></path><path d="M572 221L617 131L512 218Z" fill="#081a28" stroke="#081a28"></path><path d="M521 67L424 219L512 218Z" fill="#081a28" stroke="#081a28"></path><path d="M236 532L331 600L335 467Z" fill="#246688" stroke="#246688"></path><path d="M236 532L335 467L292 426Z" fill="#081a28" stroke="#081a28"></path><path d="M179 293L179 382L275 339Z" fill="#0c2435" stroke="#0c2435"></path><path d="M224 237L179 293L275 339Z" fill="#1d4e6b" stroke="#1d4e6b"></path><path d="M617 131L521 67L512 218Z" fill="#081a28" stroke="#081a28"></path><path d="M179 382L236 532L292 426Z" fill="#1d4e6b" stroke="#1d4e6b"></path><path d="M308 0L297 104L388 89Z" fill="#277297" stroke="#277297"></path><path d="M388 89L297 104L285 172Z" fill="#297ea6" stroke="#297ea6"></path><path d="M171 61L112 210L224 237Z" fill="#277297" stroke="#277297"></path><path d="M224 237L112 210L179 293Z" fill="#00101c" stroke="#00101c"></path><path d="M515 600L622 600L526 487Z" fill="#19435d" stroke="#19435d"></path><path d="M677 469L798 429L716 393Z" fill="#112e42" stroke="#112e42"></path><path d="M705 300L711 171L616 303Z" fill="#0c2435" stroke="#0c2435"></path><path d="M630 0L519 0L521 67Z" fill="#15384f" stroke="#15384f"></path><path d="M770 211L711 171L705 300Z" fill="#19435d" stroke="#19435d"></path><path d="M112 210L138 338L179 293Z" fill="#19435d" stroke="#19435d"></path><path d="M179 293L138 338L179 382Z" fill="#205a7a" stroke="#205a7a"></path><path d="M179 382L117 424L236 532Z" fill="#112e42" stroke="#112e42"></path><path d="M819 280L770 211L705 300Z" fill="#297ea6" stroke="#297ea6"></path><path d="M834 478L798 429L677 469Z" fill="#081a28" stroke="#081a28"></path><path d="M716 393L819 280L705 300Z" fill="#1d4e6b" stroke="#1d4e6b"></path><path d="M622 600L705 600L677 469Z" fill="#246688" stroke="#246688"></path><path d="M138 338L117 424L179 382Z" fill="#19435d" stroke="#19435d"></path><path d="M770 211L722 115L711 171Z" fill="#205a7a" stroke="#205a7a"></path><path d="M711 171L722 115L617 131Z" fill="#277297" stroke="#277297"></path><path d="M521 67L403 0L388 89Z" fill="#297ea6" stroke="#297ea6"></path><path d="M519 0L403 0L521 67Z" fill="#19435d" stroke="#19435d"></path><path d="M630 0L521 67L617 131Z" fill="#112e42" stroke="#112e42"></path><path d="M798 429L819 280L716 393Z" fill="#277297" stroke="#277297"></path><path d="M805 0L718 0L722 115Z" fill="#081a28" stroke="#081a28"></path><path d="M125 530L194 600L236 532Z" fill="#297ea6" stroke="#297ea6"></path><path d="M236 532L194 600L331 600Z" fill="#297ea6" stroke="#297ea6"></path><path d="M171 61L224 237L285 172Z" fill="#081a28" stroke="#081a28"></path><path d="M138 338L0 400L117 424Z" fill="#0c2435" stroke="#0c2435"></path><path d="M171 61L285 172L297 104Z" fill="#15384f" stroke="#15384f"></path><path d="M117 424L125 530L236 532Z" fill="#00101c" stroke="#00101c"></path><path d="M403 0L308 0L388 89Z" fill="#246688" stroke="#246688"></path><path d="M722 115L630 0L617 131Z" fill="#081a28" stroke="#081a28"></path><path d="M800 600L834 478L677 469Z" fill="#112e42" stroke="#112e42"></path><path d="M900 389L900 323L819 280Z" fill="#205a7a" stroke="#205a7a"></path><path d="M308 0L171 61L297 104Z" fill="#0c2435" stroke="#0c2435"></path><path d="M705 600L800 600L677 469Z" fill="#277297" stroke="#277297"></path><path d="M835 99L722 115L770 211Z" fill="#081a28" stroke="#081a28"></path><path d="M722 115L718 0L630 0Z" fill="#246688" stroke="#246688"></path><path d="M900 389L819 280L798 429Z" fill="#15384f" stroke="#15384f"></path><path d="M900 226L835 99L770 211Z" fill="#1d4e6b" stroke="#1d4e6b"></path><path d="M900 389L798 429L834 478Z" fill="#246688" stroke="#246688"></path><path d="M900 493L900 389L834 478Z" fill="#15384f" stroke="#15384f"></path><path d="M308 0L178 0L171 61Z" fill="#1d4e6b" stroke="#1d4e6b"></path><path d="M171 61L87 64L112 210Z" fill="#0c2435" stroke="#0c2435"></path><path d="M900 226L770 211L819 280Z" fill="#00101c" stroke="#00101c"></path><path d="M900 323L900 226L819 280Z" fill="#277297" stroke="#277297"></path><path d="M0 533L125 530L117 424Z" fill="#15384f" stroke="#15384f"></path><path d="M0 533L75 600L125 530Z" fill="#19435d" stroke="#19435d"></path><path d="M125 530L75 600L194 600Z" fill="#246688" stroke="#246688"></path><path d="M0 179L0 331L112 210Z" fill="#112e42" stroke="#112e42"></path><path d="M112 210L0 331L138 338Z" fill="#112e42" stroke="#112e42"></path><path d="M900 600L900 493L834 478Z" fill="#246688" stroke="#246688"></path><path d="M0 331L0 400L138 338Z" fill="#081a28" stroke="#081a28"></path><path d="M106 0L87 64L171 61Z" fill="#0c2435" stroke="#0c2435"></path><path d="M0 136L0 179L112 210Z" fill="#297ea6" stroke="#297ea6"></path><path d="M900 0L805 0L835 99Z" fill="#246688" stroke="#246688"></path><path d="M835 99L805 0L722 115Z" fill="#1d4e6b" stroke="#1d4e6b"></path><path d="M0 400L0 533L117 424Z" fill="#1d4e6b" stroke="#1d4e6b"></path><path d="M178 0L106 0L171 61Z" fill="#15384f" stroke="#15384f"></path><path d="M87 64L0 136L112 210Z" fill="#205a7a" stroke="#205a7a"></path><path d="M800 600L900 600L834 478Z" fill="#15384f" stroke="#15384f"></path><path d="M0 0L0 136L87 64Z" fill="#081a28" stroke="#081a28"></path><path d="M900 226L900 88L835 99Z" fill="#19435d" stroke="#19435d"></path><path d="M0 533L0 600L75 600Z" fill="#0c2435" stroke="#0c2435"></path><path d="M900 88L900 0L835 99Z" fill="#205a7a" stroke="#205a7a"></path><path d="M106 0L0 0L87 64Z" fill="#15384f" stroke="#15384f"></path></g></svg>